TITLE ""
FILE "TOEIC LR Kinnojyukugo_04.mp3" MP3
  TRACK 01 AUDIO
    TITLE "TOEIC LR Kinnojyukugo_04_001"
    INDEX 01 00:00:00
  TRACK 02 AUDIO
    TITLE "TOEIC LR Kinnojyukugo_04_002"
    INDEX 01 00:00:14
  TRACK 03 AUDIO
    TITLE "TOEIC LR Kinnojyukugo_04_003"
    INDEX 01 00:01:35
  TRACK 04 AUDIO
    TITLE "TOEIC LR Kinnojyukugo_04_004"
    INDEX 01 00:02:01
  TRACK 05 AUDIO
    TITLE "TOEIC LR Kinnojyukugo_04_005"
    INDEX 01 00:04:26
  TRACK 06 AUDIO
    TITLE "TOEIC LR Kinnojyukugo_04_006"
    INDEX 01 00:05:25
  TRACK 07 AUDIO
    TITLE "TOEIC LR Kinnojyukugo_04_007"
    INDEX 01 00:06:52
  TRACK 08 AUDIO
    TITLE "TOEIC LR Kinnojyukugo_04_008"
    INDEX 01 00:07:16
  TRACK 09 AUDIO
    TITLE "TOEIC LR Kinnojyukugo_04_009"
    INDEX 01 00:09:13
  TRACK 10 AUDIO
    TITLE "TOEIC LR Kinnojyukugo_04_010"
    INDEX 01 00:10:13
  TRACK 11 AUDIO
    TITLE "TOEIC LR Kinnojyukugo_04_011"
    INDEX 01 00:11:28
  TRACK 12 AUDIO
    TITLE "TOEIC LR Kinnojyukugo_04_012"
    INDEX 01 00:11:65
  TRACK 13 AUDIO
    TITLE "TOEIC LR Kinnojyukugo_04_013"
    INDEX 01 00:15:31
  TRACK 14 AUDIO
    TITLE "TOEIC LR Kinnojyukugo_04_014"
    INDEX 01 00:16:33
  TRACK 15 AUDIO
    TITLE "TOEIC LR Kinnojyukugo_04_015"
    INDEX 01 00:17:66
  TRACK 16 AUDIO
    TITLE "TOEIC LR Kinnojyukugo_04_016"
    INDEX 01 00:18:28
  TRACK 17 AUDIO
    TITLE "TOEIC LR Kinnojyukugo_04_017"
    INDEX 01 00:20:05
  TRACK 18 AUDIO
    TITLE "TOEIC LR Kinnojyukugo_04_018"
    INDEX 01 00:21:09
  TRACK 19 AUDIO
    TITLE "TOEIC LR Kinnojyukugo_04_019"
    INDEX 01 00:22:26
  TRACK 20 AUDIO
    TITLE "TOEIC LR Kinnojyukugo_04_020"
    INDEX 01 00:22:63
  TRACK 21 AUDIO
    TITLE "TOEIC LR Kinnojyukugo_04_021"
    INDEX 01 00:25:36
  TRACK 22 AUDIO
    TITLE "TOEIC LR Kinnojyukugo_04_022"
    INDEX 01 00:26:37
  TRACK 23 AUDIO
    TITLE "TOEIC LR Kinnojyukugo_04_023"
    INDEX 01 00:27:60
  TRACK 24 AUDIO
    TITLE "TOEIC LR Kinnojyukugo_04_024"
    INDEX 01 00:28:22
  TRACK 25 AUDIO
    TITLE "TOEIC LR Kinnojyukugo_04_025"
    INDEX 01 00:30:54
  TRACK 26 AUDIO
    TITLE "TOEIC LR Kinnojyukugo_04_026"
    INDEX 01 00:31:56
  TRACK 27 AUDIO
    TITLE "TOEIC LR Kinnojyukugo_04_027"
    INDEX 01 00:34:33
  TRACK 28 AUDIO
    TITLE "TOEIC LR Kinnojyukugo_04_028"
    INDEX 01 00:35:01
  TRACK 29 AUDIO
    TITLE "TOEIC LR Kinnojyukugo_04_029"
    INDEX 01 00:37:53
  TRACK 30 AUDIO
    TITLE "TOEIC LR Kinnojyukugo_04_030"
    INDEX 01 00:38:52
  TRACK 31 AUDIO
    TITLE "TOEIC LR Kinnojyukugo_04_031"
    INDEX 01 00:39:73
  TRACK 32 AUDIO
    TITLE "TOEIC LR Kinnojyukugo_04_032"
    INDEX 01 00:40:43
  TRACK 33 AUDIO
    TITLE "TOEIC LR Kinnojyukugo_04_033"
    INDEX 01 00:43:00
  TRACK 34 AUDIO
    TITLE "TOEIC LR Kinnojyukugo_04_034"
    INDEX 01 00:44:00
  TRACK 35 AUDIO
    TITLE "TOEIC LR Kinnojyukugo_04_035"
    INDEX 01 00:45:38
  TRACK 36 AUDIO
    TITLE "TOEIC LR Kinnojyukugo_04_036"
    INDEX 01 00:46:01
  TRACK 37 AUDIO
    TITLE "TOEIC LR Kinnojyukugo_04_037"
    INDEX 01 00:47:53
  TRACK 38 AUDIO
    TITLE "TOEIC LR Kinnojyukugo_04_038"
    INDEX 01 00:48:52
  TRACK 39 AUDIO
    TITLE "TOEIC LR Kinnojyukugo_04_039"
    INDEX 01 00:50:00
  TRACK 40 AUDIO
    TITLE "TOEIC LR Kinnojyukugo_04_040"
    INDEX 01 00:50:38
  TRACK 41 AUDIO
    TITLE "TOEIC LR Kinnojyukugo_04_041"
    INDEX 01 00:52:72
  TRACK 42 AUDIO
    TITLE "TOEIC LR Kinnojyukugo_04_042"
    INDEX 01 00:54:02
  TRACK 43 AUDIO
    TITLE "TOEIC LR Kinnojyukugo_04_043"
    INDEX 01 00:55:25
  TRACK 44 AUDIO
    TITLE "TOEIC LR Kinnojyukugo_04_044"
    INDEX 01 00:55:62
  TRACK 45 AUDIO
    TITLE "TOEIC LR Kinnojyukugo_04_045"
    INDEX 01 00:57:26
  TRACK 46 AUDIO
    TITLE "TOEIC LR Kinnojyukugo_04_046"
    INDEX 01 00:58:25
  TRACK 47 AUDIO
    TITLE "TOEIC LR Kinnojyukugo_04_047"
    INDEX 01 00:59:44
  TRACK 48 AUDIO
    TITLE "TOEIC LR Kinnojyukugo_04_048"
    INDEX 01 01:00:07
  TRACK 49 AUDIO
    TITLE "TOEIC LR Kinnojyukugo_04_049"
    INDEX 01 01:02:70
  TRACK 50 AUDIO
    TITLE "TOEIC LR Kinnojyukugo_04_050"
    INDEX 01 01:03:70
  TRACK 51 AUDIO
    TITLE "TOEIC LR Kinnojyukugo_04_051"
    INDEX 01 01:05:33
  TRACK 52 AUDIO
    TITLE "TOEIC LR Kinnojyukugo_04_052"
    INDEX 01 01:05:70
  TRACK 53 AUDIO
    TITLE "TOEIC LR Kinnojyukugo_04_053"
    INDEX 01 01:08:26
  TRACK 54 AUDIO
    TITLE "TOEIC LR Kinnojyukugo_04_054"
    INDEX 01 01:09:25
  TRACK 55 AUDIO
    TITLE "TOEIC LR Kinnojyukugo_04_055"
    INDEX 01 01:10:38
  TRACK 56 AUDIO
    TITLE "TOEIC LR Kinnojyukugo_04_056"
    INDEX 01 01:11:03
  TRACK 57 AUDIO
    TITLE "TOEIC LR Kinnojyukugo_04_057"
    INDEX 01 01:12:63
  TRACK 58 AUDIO
    TITLE "TOEIC LR Kinnojyukugo_04_058"
    INDEX 01 01:13:62
  TRACK 59 AUDIO
    TITLE "TOEIC LR Kinnojyukugo_04_059"
    INDEX 01 01:15:38
  TRACK 60 AUDIO
    TITLE "TOEIC LR Kinnojyukugo_04_060"
    INDEX 01 01:16:00
  TRACK 61 AUDIO
    TITLE "TOEIC LR Kinnojyukugo_04_061"
    INDEX 01 01:18:28
  TRACK 62 AUDIO
    TITLE "TOEIC LR Kinnojyukugo_04_062"
    INDEX 01 01:19:33
  TRACK 63 AUDIO
    TITLE "TOEIC LR Kinnojyukugo_04_063"
    INDEX 01 01:21:07
  TRACK 64 AUDIO
    TITLE "TOEIC LR Kinnojyukugo_04_064"
    INDEX 01 01:21:46
  TRACK 65 AUDIO
    TITLE "TOEIC LR Kinnojyukugo_04_065"
    INDEX 01 01:24:66
  TRACK 66 AUDIO
    TITLE "TOEIC LR Kinnojyukugo_04_066"
    INDEX 01 01:25:67
  TRACK 67 AUDIO
    TITLE "TOEIC LR Kinnojyukugo_04_067"
    INDEX 01 01:27:07
  TRACK 68 AUDIO
    TITLE "TOEIC LR Kinnojyukugo_04_068"
    INDEX 01 01:27:45
  TRACK 69 AUDIO
    TITLE "TOEIC LR Kinnojyukugo_04_069"
    INDEX 01 01:29:69
  TRACK 70 AUDIO
    TITLE "TOEIC LR Kinnojyukugo_04_070"
    INDEX 01 01:30:70
  TRACK 71 AUDIO
    TITLE "TOEIC LR Kinnojyukugo_04_071"
    INDEX 01 01:32:12
  TRACK 72 AUDIO
    TITLE "TOEIC LR Kinnojyukugo_04_072"
    INDEX 01 01:32:50
  TRACK 73 AUDIO
    TITLE "TOEIC LR Kinnojyukugo_04_073"
    INDEX 01 01:35:03
  TRACK 74 AUDIO
    TITLE "TOEIC LR Kinnojyukugo_04_074"
    INDEX 01 01:36:02
  TRACK 75 AUDIO
    TITLE "TOEIC LR Kinnojyukugo_04_075"
    INDEX 01 01:37:20
  TRACK 76 AUDIO
    TITLE "TOEIC LR Kinnojyukugo_04_076"
    INDEX 01 01:37:61
  TRACK 77 AUDIO
    TITLE "TOEIC LR Kinnojyukugo_04_077"
    INDEX 01 01:40:16
  TRACK 78 AUDIO
    TITLE "TOEIC LR Kinnojyukugo_04_078"
    INDEX 01 01:41:15
  TRACK 79 AUDIO
    TITLE "TOEIC LR Kinnojyukugo_04_079"
    INDEX 01 01:42:52
  TRACK 80 AUDIO
    TITLE "TOEIC LR Kinnojyukugo_04_080"
    INDEX 01 01:43:14
  TRACK 81 AUDIO
    TITLE "TOEIC LR Kinnojyukugo_04_081"
    INDEX 01 01:45:68
  TRACK 82 AUDIO
    TITLE "TOEIC LR Kinnojyukugo_04_082"
    INDEX 01 01:46:69
  TRACK 83 AUDIO
    TITLE "TOEIC LR Kinnojyukugo_04_083"
    INDEX 01 01:48:27
  TRACK 84 AUDIO
    TITLE "TOEIC LR Kinnojyukugo_04_084"
    INDEX 01 01:48:64
  TRACK 85 AUDIO
    TITLE "TOEIC LR Kinnojyukugo_04_085"
    INDEX 01 01:50:63
  TRACK 86 AUDIO
    TITLE "TOEIC LR Kinnojyukugo_04_086"
    INDEX 01 01:51:63
  TRACK 87 AUDIO
    TITLE "TOEIC LR Kinnojyukugo_04_087"
    INDEX 01 01:53:05
  TRACK 88 AUDIO
    TITLE "TOEIC LR Kinnojyukugo_04_088"
    INDEX 01 01:53:42
  TRACK 89 AUDIO
    TITLE "TOEIC LR Kinnojyukugo_04_089"
    INDEX 01 01:56:31
  TRACK 90 AUDIO
    TITLE "TOEIC LR Kinnojyukugo_04_090"
    INDEX 01 01:57:30
  TRACK 91 AUDIO
    TITLE "TOEIC LR Kinnojyukugo_04_091"
    INDEX 01 01:59:29
  TRACK 92 AUDIO
    TITLE "TOEIC LR Kinnojyukugo_04_092"
    INDEX 01 01:59:68
  TRACK 93 AUDIO
    TITLE "TOEIC LR Kinnojyukugo_04_093"
    INDEX 01 02:02:49
  TRACK 94 AUDIO
    TITLE "TOEIC LR Kinnojyukugo_04_094"
    INDEX 01 02:03:48
  TRACK 95 AUDIO
    TITLE "TOEIC LR Kinnojyukugo_04_095"
    INDEX 01 02:05:12
  TRACK 96 AUDIO
    TITLE "TOEIC LR Kinnojyukugo_04_096"
    INDEX 01 02:05:49
  TRACK 97 AUDIO
    TITLE "TOEIC LR Kinnojyukugo_04_097"
    INDEX 01 02:08:14
  TRACK 98 AUDIO
    TITLE "TOEIC LR Kinnojyukugo_04_098"
    INDEX 01 02:09:16
  TRACK 99 AUDIO
    TITLE "TOEIC LR Kinnojyukugo_04_099"
    INDEX 01 02:10:74
  TRACK 100 AUDIO
    TITLE "TOEIC LR Kinnojyukugo_04_100"
    INDEX 01 02:11:40
  TRACK 101 AUDIO
    TITLE "TOEIC LR Kinnojyukugo_04_101"
    INDEX 01 02:14:56
  TRACK 102 AUDIO
    TITLE "TOEIC LR Kinnojyukugo_04_102"
    INDEX 01 02:15:57
  TRACK 103 AUDIO
    TITLE "TOEIC LR Kinnojyukugo_04_103"
    INDEX 01 02:17:01
  TRACK 104 AUDIO
    TITLE "TOEIC LR Kinnojyukugo_04_104"
    INDEX 01 02:17:43
  TRACK 105 AUDIO
    TITLE "TOEIC LR Kinnojyukugo_04_105"
    INDEX 01 02:21:21
  TRACK 106 AUDIO
    TITLE "TOEIC LR Kinnojyukugo_04_106"
    INDEX 01 02:22:28
  TRACK 107 AUDIO
    TITLE "TOEIC LR Kinnojyukugo_04_107"
    INDEX 01 02:23:67
  TRACK 108 AUDIO
    TITLE "TOEIC LR Kinnojyukugo_04_108"
    INDEX 01 02:24:31
  TRACK 109 AUDIO
    TITLE "TOEIC LR Kinnojyukugo_04_109"
    INDEX 01 02:27:04
  TRACK 110 AUDIO
    TITLE "TOEIC LR Kinnojyukugo_04_110"
    INDEX 01 02:28:07
  TRACK 111 AUDIO
    TITLE "TOEIC LR Kinnojyukugo_04_111"
    INDEX 01 02:29:22
  TRACK 112 AUDIO
    TITLE "TOEIC LR Kinnojyukugo_04_112"
    INDEX 01 02:29:65
  TRACK 113 AUDIO
    TITLE "TOEIC LR Kinnojyukugo_04_113"
    INDEX 01 02:32:40
  TRACK 114 AUDIO
    TITLE "TOEIC LR Kinnojyukugo_04_114"
    INDEX 01 02:33:45
  TRACK 115 AUDIO
    TITLE "TOEIC LR Kinnojyukugo_04_115"
    INDEX 01 02:34:43
  TRACK 116 AUDIO
    TITLE "TOEIC LR Kinnojyukugo_04_116"
    INDEX 01 02:35:19
  TRACK 117 AUDIO
    TITLE "TOEIC LR Kinnojyukugo_04_117"
    INDEX 01 02:37:49
  TRACK 118 AUDIO
    TITLE "TOEIC LR Kinnojyukugo_04_118"
    INDEX 01 02:38:51
  TRACK 119 AUDIO
    TITLE "TOEIC LR Kinnojyukugo_04_119"
    INDEX 01 02:40:08
  TRACK 120 AUDIO
    TITLE "TOEIC LR Kinnojyukugo_04_120"
    INDEX 01 02:40:48
  TRACK 121 AUDIO
    TITLE "TOEIC LR Kinnojyukugo_04_121"
    INDEX 01 02:42:13
  TRACK 122 AUDIO
    TITLE "TOEIC LR Kinnojyukugo_04_122"
    INDEX 01 02:43:13
  TRACK 123 AUDIO
    TITLE "TOEIC LR Kinnojyukugo_04_123"
    INDEX 01 02:44:34
  TRACK 124 AUDIO
    TITLE "TOEIC LR Kinnojyukugo_04_124"
    INDEX 01 02:44:71
  TRACK 125 AUDIO
    TITLE "TOEIC LR Kinnojyukugo_04_125"
    INDEX 01 02:46:34
  TRACK 126 AUDIO
    TITLE "TOEIC LR Kinnojyukugo_04_126"
    INDEX 01 02:47:36
  TRACK 127 AUDIO
    TITLE "TOEIC LR Kinnojyukugo_04_127"
    INDEX 01 02:49:01
  TRACK 128 AUDIO
    TITLE "TOEIC LR Kinnojyukugo_04_128"
    INDEX 01 02:49:41
  TRACK 129 AUDIO
    TITLE "TOEIC LR Kinnojyukugo_04_129"
    INDEX 01 02:52:23
  TRACK 130 AUDIO
    TITLE "TOEIC LR Kinnojyukugo_04_130"
    INDEX 01 02:53:23
  TRACK 131 AUDIO
    TITLE "TOEIC LR Kinnojyukugo_04_131"
    INDEX 01 02:55:37
  TRACK 132 AUDIO
    TITLE "TOEIC LR Kinnojyukugo_04_132"
    INDEX 01 02:56:03
  TRACK 133 AUDIO
    TITLE "TOEIC LR Kinnojyukugo_04_133"
    INDEX 01 02:58:40
  TRACK 134 AUDIO
    TITLE "TOEIC LR Kinnojyukugo_04_134"
    INDEX 01 02:59:41
  TRACK 135 AUDIO
    TITLE "TOEIC LR Kinnojyukugo_04_135"
    INDEX 01 03:01:10
  TRACK 136 AUDIO
    TITLE "TOEIC LR Kinnojyukugo_04_136"
    INDEX 01 03:01:52
  TRACK 137 AUDIO
    TITLE "TOEIC LR Kinnojyukugo_04_137"
    INDEX 01 03:04:58
  TRACK 138 AUDIO
    TITLE "TOEIC LR Kinnojyukugo_04_138"
    INDEX 01 03:05:57
  TRACK 139 AUDIO
    TITLE "TOEIC LR Kinnojyukugo_04_139"
    INDEX 01 03:07:05
  TRACK 140 AUDIO
    TITLE "TOEIC LR Kinnojyukugo_04_140"
    INDEX 01 03:07:42
  TRACK 141 AUDIO
    TITLE "TOEIC LR Kinnojyukugo_04_141"
    INDEX 01 03:10:31
  TRACK 142 AUDIO
    TITLE "TOEIC LR Kinnojyukugo_04_142"
    INDEX 01 03:11:30
  TRACK 143 AUDIO
    TITLE "TOEIC LR Kinnojyukugo_04_143"
    INDEX 01 03:14:33
  TRACK 144 AUDIO
    TITLE "TOEIC LR Kinnojyukugo_04_144"
    INDEX 01 03:14:72
  TRACK 145 AUDIO
    TITLE "TOEIC LR Kinnojyukugo_04_145"
    INDEX 01 03:17:08
  TRACK 146 AUDIO
    TITLE "TOEIC LR Kinnojyukugo_04_146"
    INDEX 01 03:18:07
  TRACK 147 AUDIO
    TITLE "TOEIC LR Kinnojyukugo_04_147"
    INDEX 01 03:19:44
  TRACK 148 AUDIO
    TITLE "TOEIC LR Kinnojyukugo_04_148"
    INDEX 01 03:20:06
  TRACK 149 AUDIO
    TITLE "TOEIC LR Kinnojyukugo_04_149"
    INDEX 01 03:22:60
  TRACK 150 AUDIO
    TITLE "TOEIC LR Kinnojyukugo_04_150"
    INDEX 01 03:23:61
  TRACK 151 AUDIO
    TITLE "TOEIC LR Kinnojyukugo_04_151"
    INDEX 01 03:24:72
  TRACK 152 AUDIO
    TITLE "TOEIC LR Kinnojyukugo_04_152"
    INDEX 01 03:25:34
  TRACK 153 AUDIO
    TITLE "TOEIC LR Kinnojyukugo_04_153"
    INDEX 01 03:27:08
  TRACK 154 AUDIO
    TITLE "TOEIC LR Kinnojyukugo_04_154"
    INDEX 01 03:28:09
  TRACK 155 AUDIO
    TITLE "TOEIC LR Kinnojyukugo_04_155"
    INDEX 01 03:29:58
  TRACK 156 AUDIO
    TITLE "TOEIC LR Kinnojyukugo_04_156"
    INDEX 01 03:30:20
  TRACK 157 AUDIO
    TITLE "TOEIC LR Kinnojyukugo_04_157"
    INDEX 01 03:32:54
  TRACK 158 AUDIO
    TITLE "TOEIC LR Kinnojyukugo_04_158"
    INDEX 01 03:33:56
  TRACK 159 AUDIO
    TITLE "TOEIC LR Kinnojyukugo_04_159"
    INDEX 01 03:34:69
  TRACK 160 AUDIO
    TITLE "TOEIC LR Kinnojyukugo_04_160"
    INDEX 01 03:35:33
  TRACK 161 AUDIO
    TITLE "TOEIC LR Kinnojyukugo_04_161"
    INDEX 01 03:37:14
  TRACK 162 AUDIO
    TITLE "TOEIC LR Kinnojyukugo_04_162"
    INDEX 01 03:38:12
  TRACK 163 AUDIO
    TITLE "TOEIC LR Kinnojyukugo_04_163"
    INDEX 01 03:39:56
  TRACK 164 AUDIO
    TITLE "TOEIC LR Kinnojyukugo_04_164"
    INDEX 01 03:40:20
  TRACK 165 AUDIO
    TITLE "TOEIC LR Kinnojyukugo_04_165"
    INDEX 01 03:43:07
  TRACK 166 AUDIO
    TITLE "TOEIC LR Kinnojyukugo_04_166"
    INDEX 01 03:44:10
  TRACK 167 AUDIO
    TITLE "TOEIC LR Kinnojyukugo_04_167"
    INDEX 01 03:45:33
  TRACK 168 AUDIO
    TITLE "TOEIC LR Kinnojyukugo_04_168"
    INDEX 01 03:45:72
  TRACK 169 AUDIO
    TITLE "TOEIC LR Kinnojyukugo_04_169"
    INDEX 01 03:48:28
  TRACK 170 AUDIO
    TITLE "TOEIC LR Kinnojyukugo_04_170"
    INDEX 01 03:49:29
  TRACK 171 AUDIO
    TITLE "TOEIC LR Kinnojyukugo_04_171"
    INDEX 01 03:50:52
  TRACK 172 AUDIO
    TITLE "TOEIC LR Kinnojyukugo_04_172"
    INDEX 01 03:51:16
  TRACK 173 AUDIO
    TITLE "TOEIC LR Kinnojyukugo_04_173"
    INDEX 01 03:53:43
  TRACK 174 AUDIO
    TITLE "TOEIC LR Kinnojyukugo_04_174"
    INDEX 01 03:54:42
  TRACK 175 AUDIO
    TITLE "TOEIC LR Kinnojyukugo_04_175"
    INDEX 01 03:55:71
  TRACK 176 AUDIO
    TITLE "TOEIC LR Kinnojyukugo_04_176"
    INDEX 01 03:56:35
  TRACK 177 AUDIO
    TITLE "TOEIC LR Kinnojyukugo_04_177"
    INDEX 01 03:58:69
  TRACK 178 AUDIO
    TITLE "TOEIC LR Kinnojyukugo_04_178"
    INDEX 01 03:59:71
  TRACK 179 AUDIO
    TITLE "TOEIC LR Kinnojyukugo_04_179"
    INDEX 01 04:01:40
  TRACK 180 AUDIO
    TITLE "TOEIC LR Kinnojyukugo_04_180"
    INDEX 01 04:02:02
  TRACK 181 AUDIO
    TITLE "TOEIC LR Kinnojyukugo_04_181"
    INDEX 01 04:05:38
  TRACK 182 AUDIO
    TITLE "TOEIC LR Kinnojyukugo_04_182"
    INDEX 01 04:06:37
  TRACK 183 AUDIO
    TITLE "TOEIC LR Kinnojyukugo_04_183"
    INDEX 01 04:08:09
  TRACK 184 AUDIO
    TITLE "TOEIC LR Kinnojyukugo_04_184"
    INDEX 01 04:08:48
  TRACK 185 AUDIO
    TITLE "TOEIC LR Kinnojyukugo_04_185"
    INDEX 01 04:11:50
  TRACK 186 AUDIO
    TITLE "TOEIC LR Kinnojyukugo_04_186"
    INDEX 01 04:12:50
  TRACK 187 AUDIO
    TITLE "TOEIC LR Kinnojyukugo_04_187"
    INDEX 01 04:13:65
  TRACK 188 AUDIO
    TITLE "TOEIC LR Kinnojyukugo_04_188"
    INDEX 01 04:14:29
  TRACK 189 AUDIO
    TITLE "TOEIC LR Kinnojyukugo_04_189"
    INDEX 01 04:16:42
  TRACK 190 AUDIO
    TITLE "TOEIC LR Kinnojyukugo_04_190"
    INDEX 01 04:17:43
  TRACK 191 AUDIO
    TITLE "TOEIC LR Kinnojyukugo_04_191"
    INDEX 01 04:18:68
  TRACK 192 AUDIO
    TITLE "TOEIC LR Kinnojyukugo_04_192"
    INDEX 01 04:19:34
  TRACK 193 AUDIO
    TITLE "TOEIC LR Kinnojyukugo_04_193"
    INDEX 01 04:21:45
  TRACK 194 AUDIO
    TITLE "TOEIC LR Kinnojyukugo_04_194"
    INDEX 01 04:22:46
  TRACK 195 AUDIO
    TITLE "TOEIC LR Kinnojyukugo_04_195"
    INDEX 01 04:23:61
  TRACK 196 AUDIO
    TITLE "TOEIC LR Kinnojyukugo_04_196"
    INDEX 01 04:24:25
  TRACK 197 AUDIO
    TITLE "TOEIC LR Kinnojyukugo_04_197"
    INDEX 01 04:26:38
  TRACK 198 AUDIO
    TITLE "TOEIC LR Kinnojyukugo_04_198"
    INDEX 01 04:27:38
  TRACK 199 AUDIO
    TITLE "TOEIC LR Kinnojyukugo_04_199"
    INDEX 01 04:28:61
  TRACK 200 AUDIO
    TITLE "TOEIC LR Kinnojyukugo_04_200"
    INDEX 01 04:29:25
  TRACK 201 AUDIO
    TITLE "TOEIC LR Kinnojyukugo_04_201"
    INDEX 01 04:31:10
  TRACK 202 AUDIO
    TITLE "TOEIC LR Kinnojyukugo_04_202"
    INDEX 01 04:32:09
  TRACK 203 AUDIO
    TITLE "TOEIC LR Kinnojyukugo_04_203"
    INDEX 01 04:33:28
  TRACK 204 AUDIO
    TITLE "TOEIC LR Kinnojyukugo_04_204"
    INDEX 01 04:33:70
  TRACK 205 AUDIO
    TITLE "TOEIC LR Kinnojyukugo_04_205"
    INDEX 01 04:36:05
  TRACK 206 AUDIO
    TITLE "TOEIC LR Kinnojyukugo_04_206"
    INDEX 01 04:37:05
  TRACK 207 AUDIO
    TITLE "TOEIC LR Kinnojyukugo_04_207"
    INDEX 01 04:38:04
  TRACK 208 AUDIO
    TITLE "TOEIC LR Kinnojyukugo_04_208"
    INDEX 01 04:38:51
  TRACK 209 AUDIO
    TITLE "TOEIC LR Kinnojyukugo_04_209"
    INDEX 01 04:41:57
  TRACK 210 AUDIO
    TITLE "TOEIC LR Kinnojyukugo_04_210"
    INDEX 01 04:42:59
  TRACK 211 AUDIO
    TITLE "TOEIC LR Kinnojyukugo_04_211"
    INDEX 01 04:43:68
  TRACK 212 AUDIO
    TITLE "TOEIC LR Kinnojyukugo_04_212"
    INDEX 01 04:44:26
  TRACK 213 AUDIO
    TITLE "TOEIC LR Kinnojyukugo_04_213"
    INDEX 01 04:46:39
  TRACK 214 AUDIO
    TITLE "TOEIC LR Kinnojyukugo_04_214"
    INDEX 01 04:47:42
  TRACK 215 AUDIO
    TITLE "TOEIC LR Kinnojyukugo_04_215"
    INDEX 01 04:48:65
  TRACK 216 AUDIO
    TITLE "TOEIC LR Kinnojyukugo_04_216"
    INDEX 01 04:49:21
  TRACK 217 AUDIO
    TITLE "TOEIC LR Kinnojyukugo_04_217"
    INDEX 01 04:52:22
  TRACK 218 AUDIO
    TITLE "TOEIC LR Kinnojyukugo_04_218"
    INDEX 01 04:53:23
  TRACK 219 AUDIO
    TITLE "TOEIC LR Kinnojyukugo_04_219"
    INDEX 01 04:54:34
  TRACK 220 AUDIO
    TITLE "TOEIC LR Kinnojyukugo_04_220"
    INDEX 01 04:54:74
  TRACK 221 AUDIO
    TITLE "TOEIC LR Kinnojyukugo_04_221"
    INDEX 01 04:57:37
  TRACK 222 AUDIO
    TITLE "TOEIC LR Kinnojyukugo_04_222"
    INDEX 01 04:58:38
  TRACK 223 AUDIO
    TITLE "TOEIC LR Kinnojyukugo_04_223"
    INDEX 01 04:59:59
  TRACK 224 AUDIO
    TITLE "TOEIC LR Kinnojyukugo_04_224"
    INDEX 01 05:00:23
  TRACK 225 AUDIO
    TITLE "TOEIC LR Kinnojyukugo_04_225"
    INDEX 01 05:02:38
  TRACK 226 AUDIO
    TITLE "TOEIC LR Kinnojyukugo_04_226"
    INDEX 01 05:03:37
  TRACK 227 AUDIO
    TITLE "TOEIC LR Kinnojyukugo_04_227"
    INDEX 01 05:04:64
  TRACK 228 AUDIO
    TITLE "TOEIC LR Kinnojyukugo_04_228"
    INDEX 01 05:05:28
  TRACK 229 AUDIO
    TITLE "TOEIC LR Kinnojyukugo_04_229"
    INDEX 01 05:07:51
  TRACK 230 AUDIO
    TITLE "TOEIC LR Kinnojyukugo_04_230"
    INDEX 01 05:08:56
  TRACK 231 AUDIO
    TITLE "TOEIC LR Kinnojyukugo_04_231"
    INDEX 01 05:09:65
  TRACK 232 AUDIO
    TITLE "TOEIC LR Kinnojyukugo_04_232"
    INDEX 01 05:10:33
  TRACK 233 AUDIO
    TITLE "TOEIC LR Kinnojyukugo_04_233"
    INDEX 01 05:11:60
  TRACK 234 AUDIO
    TITLE "TOEIC LR Kinnojyukugo_04_234"
    INDEX 01 05:12:70
  TRACK 235 AUDIO
    TITLE "TOEIC LR Kinnojyukugo_04_235"
    INDEX 01 05:14:18
  TRACK 236 AUDIO
    TITLE "TOEIC LR Kinnojyukugo_04_236"
    INDEX 01 05:14:63
  TRACK 237 AUDIO
    TITLE "TOEIC LR Kinnojyukugo_04_237"
    INDEX 01 05:16:60
  TRACK 238 AUDIO
    TITLE "TOEIC LR Kinnojyukugo_04_238"
    INDEX 01 05:17:59
  TRACK 239 AUDIO
    TITLE "TOEIC LR Kinnojyukugo_04_239"
    INDEX 01 05:19:25
  TRACK 240 AUDIO
    TITLE "TOEIC LR Kinnojyukugo_04_240"
    INDEX 01 05:19:68
  TRACK 241 AUDIO
    TITLE "TOEIC LR Kinnojyukugo_04_241"
    INDEX 01 05:23:05
  TRACK 242 AUDIO
    TITLE "TOEIC LR Kinnojyukugo_04_242"
    INDEX 01 05:24:04
  TRACK 243 AUDIO
    TITLE "TOEIC LR Kinnojyukugo_04_243"
    INDEX 01 05:25:49
  TRACK 244 AUDIO
    TITLE "TOEIC LR Kinnojyukugo_04_244"
    INDEX 01 05:26:13
  TRACK 245 AUDIO
    TITLE "TOEIC LR Kinnojyukugo_04_245"
    INDEX 01 05:28:69
  TRACK 246 AUDIO
    TITLE "TOEIC LR Kinnojyukugo_04_246"
    INDEX 01 05:29:70
  TRACK 247 AUDIO
    TITLE "TOEIC LR Kinnojyukugo_04_247"
    INDEX 01 05:31:26
  TRACK 248 AUDIO
    TITLE "TOEIC LR Kinnojyukugo_04_248"
    INDEX 01 05:31:65
  TRACK 249 AUDIO
    TITLE "TOEIC LR Kinnojyukugo_04_249"
    INDEX 01 05:34:03
  TRACK 250 AUDIO
    TITLE "TOEIC LR Kinnojyukugo_04_250"
    INDEX 01 05:35:02
  TRACK 251 AUDIO
    TITLE "TOEIC LR Kinnojyukugo_04_251"
    INDEX 01 05:36:31
  TRACK 252 AUDIO
    TITLE "TOEIC LR Kinnojyukugo_04_252"
    INDEX 01 05:36:68
  TRACK 253 AUDIO
    TITLE "TOEIC LR Kinnojyukugo_04_253"
    INDEX 01 05:38:67
  TRACK 254 AUDIO
    TITLE "TOEIC LR Kinnojyukugo_04_254"
    INDEX 01 05:39:68
  TRACK 255 AUDIO
    TITLE "TOEIC LR Kinnojyukugo_04_255"
    INDEX 01 05:41:07
  TRACK 256 AUDIO
    TITLE "TOEIC LR Kinnojyukugo_04_256"
    INDEX 01 05:41:46
  TRACK 257 AUDIO
    TITLE "TOEIC LR Kinnojyukugo_04_257"
    INDEX 01 05:43:74
  TRACK 258 AUDIO
    TITLE "TOEIC LR Kinnojyukugo_04_258"
    INDEX 01 05:44:73
  TRACK 259 AUDIO
    TITLE "TOEIC LR Kinnojyukugo_04_259"
    INDEX 01 05:46:08
  TRACK 260 AUDIO
    TITLE "TOEIC LR Kinnojyukugo_04_260"
    INDEX 01 05:46:45
  TRACK 261 AUDIO
    TITLE "TOEIC LR Kinnojyukugo_04_261"
    INDEX 01 05:48:52
  TRACK 262 AUDIO
    TITLE "TOEIC LR Kinnojyukugo_04_262"
    INDEX 01 05:49:61
  TRACK 263 AUDIO
    TITLE "TOEIC LR Kinnojyukugo_04_263"
    INDEX 01 05:50:64
  TRACK 264 AUDIO
    TITLE "TOEIC LR Kinnojyukugo_04_264"
    INDEX 01 05:51:28
  TRACK 265 AUDIO
    TITLE "TOEIC LR Kinnojyukugo_04_265"
    INDEX 01 05:53:16
  TRACK 266 AUDIO
    TITLE "TOEIC LR Kinnojyukugo_04_266"
    INDEX 01 05:54:19
  TRACK 267 AUDIO
    TITLE "TOEIC LR Kinnojyukugo_04_267"
    INDEX 01 05:55:50
  TRACK 268 AUDIO
    TITLE "TOEIC LR Kinnojyukugo_04_268"
    INDEX 01 05:56:12
  TRACK 269 AUDIO
    TITLE "TOEIC LR Kinnojyukugo_04_269"
    INDEX 01 05:58:72
  TRACK 270 AUDIO
    TITLE "TOEIC LR Kinnojyukugo_04_270"
    INDEX 01 05:59:71
  TRACK 271 AUDIO
    TITLE "TOEIC LR Kinnojyukugo_04_271"
    INDEX 01 06:01:13
  TRACK 272 AUDIO
    TITLE "TOEIC LR Kinnojyukugo_04_272"
    INDEX 01 06:01:48
  TRACK 273 AUDIO
    TITLE "TOEIC LR Kinnojyukugo_04_273"
    INDEX 01 06:04:10
  TRACK 274 AUDIO
    TITLE "TOEIC LR Kinnojyukugo_04_274"
    INDEX 01 06:05:11
  TRACK 275 AUDIO
    TITLE "TOEIC LR Kinnojyukugo_04_275"
    INDEX 01 06:06:57
  TRACK 276 AUDIO
    TITLE "TOEIC LR Kinnojyukugo_04_276"
    INDEX 01 06:07:22
  TRACK 277 AUDIO
    TITLE "TOEIC LR Kinnojyukugo_04_277"
    INDEX 01 06:09:70
  TRACK 278 AUDIO
    TITLE "TOEIC LR Kinnojyukugo_04_278"
    INDEX 01 06:10:69
  TRACK 279 AUDIO
    TITLE "TOEIC LR Kinnojyukugo_04_279"
    INDEX 01 06:12:37
  TRACK 280 AUDIO
    TITLE "TOEIC LR Kinnojyukugo_04_280"
    INDEX 01 06:12:72
  TRACK 281 AUDIO
    TITLE "TOEIC LR Kinnojyukugo_04_281"
    INDEX 01 06:15:27
  TRACK 282 AUDIO
    TITLE "TOEIC LR Kinnojyukugo_04_282"
    INDEX 01 06:16:28
  TRACK 283 AUDIO
    TITLE "TOEIC LR Kinnojyukugo_04_283"
    INDEX 01 06:17:67
  TRACK 284 AUDIO
    TITLE "TOEIC LR Kinnojyukugo_04_284"
    INDEX 01 06:18:27
  TRACK 285 AUDIO
    TITLE "TOEIC LR Kinnojyukugo_04_285"
    INDEX 01 06:21:16
  TRACK 286 AUDIO
    TITLE "TOEIC LR Kinnojyukugo_04_286"
    INDEX 01 06:22:15
  TRACK 287 AUDIO
    TITLE "TOEIC LR Kinnojyukugo_04_287"
    INDEX 01 06:23:30
  TRACK 288 AUDIO
    TITLE "TOEIC LR Kinnojyukugo_04_288"
    INDEX 01 06:24:02
  TRACK 289 AUDIO
    TITLE "TOEIC LR Kinnojyukugo_04_289"
    INDEX 01 06:26:54
  TRACK 290 AUDIO
    TITLE "TOEIC LR Kinnojyukugo_04_290"
    INDEX 01 06:27:56
  TRACK 291 AUDIO
    TITLE "TOEIC LR Kinnojyukugo_04_291"
    INDEX 01 06:28:69
  TRACK 292 AUDIO
    TITLE "TOEIC LR Kinnojyukugo_04_292"
    INDEX 01 06:29:31
  TRACK 293 AUDIO
    TITLE "TOEIC LR Kinnojyukugo_04_293"
    INDEX 01 06:31:42
  TRACK 294 AUDIO
    TITLE "TOEIC LR Kinnojyukugo_04_294"
    INDEX 01 06:32:43
  TRACK 295 AUDIO
    TITLE "TOEIC LR Kinnojyukugo_04_295"
    INDEX 01 06:34:07
  TRACK 296 AUDIO
    TITLE "TOEIC LR Kinnojyukugo_04_296"
    INDEX 01 06:34:44
  TRACK 297 AUDIO
    TITLE "TOEIC LR Kinnojyukugo_04_297"
    INDEX 01 06:36:64
  TRACK 298 AUDIO
    TITLE "TOEIC LR Kinnojyukugo_04_298"
    INDEX 01 06:37:64
  TRACK 299 AUDIO
    TITLE "TOEIC LR Kinnojyukugo_04_299"
    INDEX 01 06:39:29
  TRACK 300 AUDIO
    TITLE "TOEIC LR Kinnojyukugo_04_300"
    INDEX 01 06:40:00
  TRACK 301 AUDIO
    TITLE "TOEIC LR Kinnojyukugo_04_301"
    INDEX 01 06:42:61
  TRACK 302 AUDIO
    TITLE "TOEIC LR Kinnojyukugo_04_302"
    INDEX 01 06:43:63
  TRACK 303 AUDIO
    TITLE "TOEIC LR Kinnojyukugo_04_303"
    INDEX 01 06:45:01
  TRACK 304 AUDIO
    TITLE "TOEIC LR Kinnojyukugo_04_304"
    INDEX 01 06:45:40
  TRACK 305 AUDIO
    TITLE "TOEIC LR Kinnojyukugo_04_305"
    INDEX 01 06:47:41
  TRACK 306 AUDIO
    TITLE "TOEIC LR Kinnojyukugo_04_306"
    INDEX 01 06:48:40
  TRACK 307 AUDIO
    TITLE "TOEIC LR Kinnojyukugo_04_307"
    INDEX 01 06:50:31
  TRACK 308 AUDIO
    TITLE "TOEIC LR Kinnojyukugo_04_308"
    INDEX 01 06:50:66
  TRACK 309 AUDIO
    TITLE "TOEIC LR Kinnojyukugo_04_309"
    INDEX 01 06:53:47
  TRACK 310 AUDIO
    TITLE "TOEIC LR Kinnojyukugo_04_310"
    INDEX 01 06:54:47
  TRACK 311 AUDIO
    TITLE "TOEIC LR Kinnojyukugo_04_311"
    INDEX 01 06:56:08
  TRACK 312 AUDIO
    TITLE "TOEIC LR Kinnojyukugo_04_312"
    INDEX 01 06:56:46
  TRACK 313 AUDIO
    TITLE "TOEIC LR Kinnojyukugo_04_313"
    INDEX 01 06:58:50
  TRACK 314 AUDIO
    TITLE "TOEIC LR Kinnojyukugo_04_314"
    INDEX 01 06:59:54
  TRACK 315 AUDIO
    TITLE "TOEIC LR Kinnojyukugo_04_315"
    INDEX 01 07:00:73
  TRACK 316 AUDIO
    TITLE "TOEIC LR Kinnojyukugo_04_316"
    INDEX 01 07:01:35
  TRACK 317 AUDIO
    TITLE "TOEIC LR Kinnojyukugo_04_317"
    INDEX 01 07:03:26
  TRACK 318 AUDIO
    TITLE "TOEIC LR Kinnojyukugo_04_318"
    INDEX 01 07:04:25
  TRACK 319 AUDIO
    TITLE "TOEIC LR Kinnojyukugo_04_319"
    INDEX 01 07:05:48
  TRACK 320 AUDIO
    TITLE "TOEIC LR Kinnojyukugo_04_320"
    INDEX 01 07:06:11
  TRACK 321 AUDIO
    TITLE "TOEIC LR Kinnojyukugo_04_321"
    INDEX 01 07:08:72
  TRACK 322 AUDIO
    TITLE "TOEIC LR Kinnojyukugo_04_322"
    INDEX 01 07:09:72
  TRACK 323 AUDIO
    TITLE "TOEIC LR Kinnojyukugo_04_323"
    INDEX 01 07:11:26
  TRACK 324 AUDIO
    TITLE "TOEIC LR Kinnojyukugo_04_324"
    INDEX 01 07:11:63
  TRACK 325 AUDIO
    TITLE "TOEIC LR Kinnojyukugo_04_325"
    INDEX 01 07:13:70
  TRACK 326 AUDIO
    TITLE "TOEIC LR Kinnojyukugo_04_326"
    INDEX 01 07:14:71
  TRACK 327 AUDIO
    TITLE "TOEIC LR Kinnojyukugo_04_327"
    INDEX 01 07:16:31
  TRACK 328 AUDIO
    TITLE "TOEIC LR Kinnojyukugo_04_328"
    INDEX 01 07:16:70
  TRACK 329 AUDIO
    TITLE "TOEIC LR Kinnojyukugo_04_329"
    INDEX 01 07:18:65
  TRACK 330 AUDIO
    TITLE "TOEIC LR Kinnojyukugo_04_330"
    INDEX 01 07:19:64
  TRACK 331 AUDIO
    TITLE "TOEIC LR Kinnojyukugo_04_331"
    INDEX 01 07:21:24
  TRACK 332 AUDIO
    TITLE "TOEIC LR Kinnojyukugo_04_332"
    INDEX 01 07:21:65
  TRACK 333 AUDIO
    TITLE "TOEIC LR Kinnojyukugo_04_333"
    INDEX 01 07:24:30
  TRACK 334 AUDIO
    TITLE "TOEIC LR Kinnojyukugo_04_334"
    INDEX 01 07:25:33
  TRACK 335 AUDIO
    TITLE "TOEIC LR Kinnojyukugo_04_335"
    INDEX 01 07:26:49
  TRACK 336 AUDIO
    TITLE "TOEIC LR Kinnojyukugo_04_336"
    INDEX 01 07:27:15
  TRACK 337 AUDIO
    TITLE "TOEIC LR Kinnojyukugo_04_337"
    INDEX 01 07:29:70
  TRACK 338 AUDIO
    TITLE "TOEIC LR Kinnojyukugo_04_338"
    INDEX 01 07:30:72
  TRACK 339 AUDIO
    TITLE "TOEIC LR Kinnojyukugo_04_339"
    INDEX 01 07:32:20
  TRACK 340 AUDIO
    TITLE "TOEIC LR Kinnojyukugo_04_340"
    INDEX 01 07:32:57
  TRACK 341 AUDIO
    TITLE "TOEIC LR Kinnojyukugo_04_341"
    INDEX 01 07:35:18
  TRACK 342 AUDIO
    TITLE "TOEIC LR Kinnojyukugo_04_342"
    INDEX 01 07:36:18
  TRACK 343 AUDIO
    TITLE "TOEIC LR Kinnojyukugo_04_343"
    INDEX 01 07:37:68
  TRACK 344 AUDIO
    TITLE "TOEIC LR Kinnojyukugo_04_344"
    INDEX 01 07:38:32
  TRACK 345 AUDIO
    TITLE "TOEIC LR Kinnojyukugo_04_345"
    INDEX 01 07:40:37
  TRACK 346 AUDIO
    TITLE "TOEIC LR Kinnojyukugo_04_346"
    INDEX 01 07:41:38
  TRACK 347 AUDIO
    TITLE "TOEIC LR Kinnojyukugo_04_347"
    INDEX 01 07:43:02
  TRACK 348 AUDIO
    TITLE "TOEIC LR Kinnojyukugo_04_348"
    INDEX 01 07:43:39
  TRACK 349 AUDIO
    TITLE "TOEIC LR Kinnojyukugo_04_349"
    INDEX 01 07:46:12
  TRACK 350 AUDIO
    TITLE "TOEIC LR Kinnojyukugo_04_350"
    INDEX 01 07:47:15
  TRACK 351 AUDIO
    TITLE "TOEIC LR Kinnojyukugo_04_351"
    INDEX 01 07:48:31
  TRACK 352 AUDIO
    TITLE "TOEIC LR Kinnojyukugo_04_352"
    INDEX 01 07:48:70
  TRACK 353 AUDIO
    TITLE "TOEIC LR Kinnojyukugo_04_353"
    INDEX 01 07:51:47
  TRACK 354 AUDIO
    TITLE "TOEIC LR Kinnojyukugo_04_354"
    INDEX 01 07:52:44
  TRACK 355 AUDIO
    TITLE "TOEIC LR Kinnojyukugo_04_355"
    INDEX 01 07:53:61
  TRACK 356 AUDIO
    TITLE "TOEIC LR Kinnojyukugo_04_356"
    INDEX 01 07:54:27
  TRACK 357 AUDIO
    TITLE "TOEIC LR Kinnojyukugo_04_357"
    INDEX 01 07:56:20
  TRACK 358 AUDIO
    TITLE "TOEIC LR Kinnojyukugo_04_358"
    INDEX 01 07:57:22
  TRACK 359 AUDIO
    TITLE "TOEIC LR Kinnojyukugo_04_359"
    INDEX 01 07:58:39
  TRACK 360 AUDIO
    TITLE "TOEIC LR Kinnojyukugo_04_360"
    INDEX 01 07:59:03
  TRACK 361 AUDIO
    TITLE "TOEIC LR Kinnojyukugo_04_361"
    INDEX 01 08:01:43
  TRACK 362 AUDIO
    TITLE "TOEIC LR Kinnojyukugo_04_362"
    INDEX 01 08:02:46
  TRACK 363 AUDIO
    TITLE "TOEIC LR Kinnojyukugo_04_363"
    INDEX 01 08:03:60
  TRACK 364 AUDIO
    TITLE "TOEIC LR Kinnojyukugo_04_364"
    INDEX 01 08:04:26
  TRACK 365 AUDIO
    TITLE "TOEIC LR Kinnojyukugo_04_365"
    INDEX 01 08:06:44
  TRACK 366 AUDIO
    TITLE "TOEIC LR Kinnojyukugo_04_366"
    INDEX 01 08:07:44
  TRACK 367 AUDIO
    TITLE "TOEIC LR Kinnojyukugo_04_367"
    INDEX 01 08:08:63
  TRACK 368 AUDIO
    TITLE "TOEIC LR Kinnojyukugo_04_368"
    INDEX 01 08:09:25
  TRACK 369 AUDIO
    TITLE "TOEIC LR Kinnojyukugo_04_369"
    INDEX 01 08:11:45
  TRACK 370 AUDIO
    TITLE "TOEIC LR Kinnojyukugo_04_370"
    INDEX 01 08:12:45
  TRACK 371 AUDIO
    TITLE "TOEIC LR Kinnojyukugo_04_371"
    INDEX 01 08:13:74
  TRACK 372 AUDIO
    TITLE "TOEIC LR Kinnojyukugo_04_372"
    INDEX 01 08:14:36
  TRACK 373 AUDIO
    TITLE "TOEIC LR Kinnojyukugo_04_373"
    INDEX 01 08:16:72
  TRACK 374 AUDIO
    TITLE "TOEIC LR Kinnojyukugo_04_374"
    INDEX 01 08:17:73
  TRACK 375 AUDIO
    TITLE "TOEIC LR Kinnojyukugo_04_375"
    INDEX 01 08:19:29
  TRACK 376 AUDIO
    TITLE "TOEIC LR Kinnojyukugo_04_376"
    INDEX 01 08:19:64
  TRACK 377 AUDIO
    TITLE "TOEIC LR Kinnojyukugo_04_377"
    INDEX 01 08:23:56
  TRACK 378 AUDIO
    TITLE "TOEIC LR Kinnojyukugo_04_378"
    INDEX 01 08:24:56
  TRACK 379 AUDIO
    TITLE "TOEIC LR Kinnojyukugo_04_379"
    INDEX 01 08:26:02
  TRACK 380 AUDIO
    TITLE "TOEIC LR Kinnojyukugo_04_380"
    INDEX 01 08:26:39
  TRACK 381 AUDIO
    TITLE "TOEIC LR Kinnojyukugo_04_381"
    INDEX 01 08:29:06
  TRACK 382 AUDIO
    TITLE "TOEIC LR Kinnojyukugo_04_382"
    INDEX 01 08:30:07
  TRACK 383 AUDIO
    TITLE "TOEIC LR Kinnojyukugo_04_383"
    INDEX 01 08:31:27
  TRACK 384 AUDIO
    TITLE "TOEIC LR Kinnojyukugo_04_384"
    INDEX 01 08:31:68
  TRACK 385 AUDIO
    TITLE "TOEIC LR Kinnojyukugo_04_385"
    INDEX 01 08:34:19
  TRACK 386 AUDIO
    TITLE "TOEIC LR Kinnojyukugo_04_386"
    INDEX 01 08:35:18
  TRACK 387 AUDIO
    TITLE "TOEIC LR Kinnojyukugo_04_387"
    INDEX 01 08:36:41
  TRACK 388 AUDIO
    TITLE "TOEIC LR Kinnojyukugo_04_388"
    INDEX 01 08:37:08
  TRACK 389 AUDIO
    TITLE "TOEIC LR Kinnojyukugo_04_389"
    INDEX 01 08:38:74
  TRACK 390 AUDIO
    TITLE "TOEIC LR Kinnojyukugo_04_390"
    INDEX 01 08:40:00
  TRACK 391 AUDIO
    TITLE "TOEIC LR Kinnojyukugo_04_391"
    INDEX 01 08:41:13
  TRACK 392 AUDIO
    TITLE "TOEIC LR Kinnojyukugo_04_392"
    INDEX 01 08:41:60
  TRACK 393 AUDIO
    TITLE "TOEIC LR Kinnojyukugo_04_393"
    INDEX 01 08:44:12
  TRACK 394 AUDIO
    TITLE "TOEIC LR Kinnojyukugo_04_394"
    INDEX 01 08:45:13
  TRACK 395 AUDIO
    TITLE "TOEIC LR Kinnojyukugo_04_395"
    INDEX 01 08:46:36
  TRACK 396 AUDIO
    TITLE "TOEIC LR Kinnojyukugo_04_396"
    INDEX 01 08:46:73
  TRACK 397 AUDIO
    TITLE "TOEIC LR Kinnojyukugo_04_397"
    INDEX 01 08:49:11
  TRACK 398 AUDIO
    TITLE "TOEIC LR Kinnojyukugo_04_398"
    INDEX 01 08:50:10
  TRACK 399 AUDIO
    TITLE "TOEIC LR Kinnojyukugo_04_399"
    INDEX 01 08:51:43
  TRACK 400 AUDIO
    TITLE "TOEIC LR Kinnojyukugo_04_400"
    INDEX 01 08:52:05
  TRACK 401 AUDIO
    TITLE "TOEIC LR Kinnojyukugo_04_401"
    INDEX 01 08:54:18
